<svg width="75" height="61" viewBox="0 0 75 61" fill="none" xmlns="http://www.w3.org/2000/svg">
<path d="M0.654927 11.973C0.999206 5.96151 5.26057 1.25033 10.5655 0.952241C18.2475 0.520593 29.2272 0 37.5 0C45.7728 0 56.7525 0.520593 64.4345 0.952241C69.7394 1.25033 74.0008 5.96151 74.3451 11.973C74.6749 17.7324 75 24.8192 75 30.3797C75 35.9403 74.6749 43.0271 74.3451 48.7865C74.0008 54.798 69.7394 59.5092 64.4345 59.8073C56.7525 60.2389 45.7728 60.7595 37.5 60.7595C29.2272 60.7595 18.2475 60.2389 10.5655 59.8073C5.26058 59.5092 0.999205 54.798 0.654927 48.7865C0.325082 43.0271 0 35.9403 0 30.3797C0 24.8192 0.325082 17.7324 0.654927 11.973Z" fill="#FC0D1B"/>
<path d="M60.0525 19.6941C59.5221 17.8588 57.9685 16.4118 55.9982 15.9176C52.3985 15 37.9999 15 37.9999 15C37.9999 15 23.6013 15 20.0016 15.8824C18.0692 16.3765 16.4778 17.8588 15.9473 19.6941C15 23.0471 15 30 15 30C15 30 15 36.9882 15.9473 40.3059C16.4778 42.1412 18.0313 43.5882 20.0016 44.0824C23.6392 45 37.9999 45 37.9999 45C37.9999 45 52.3985 45 55.9982 44.1176C57.9685 43.6235 59.5221 42.1765 60.0525 40.3412C60.9998 36.9882 60.9998 30.0353 60.9998 30.0353C60.9998 30.0353 61.0377 23.0471 60.0525 19.6941Z" fill="white"/>
<path d="M34 36.2911L45.3924 29.6456L34 23V36.2911Z" fill="#FF0000"/>
</svg>
