<svg width="45" height="36" viewBox="0 0 45 36" fill="none" xmlns="http://www.w3.org/2000/svg">
<path d="M0.392956 7.01151C0.599523 3.49112 3.15634 0.732205 6.33932 0.557642C10.9485 0.304865 17.5363 0 22.5 0C27.4637 0 34.0515 0.304865 38.6607 0.557642C41.8437 0.732205 44.4005 3.49112 44.607 7.01151C44.8049 10.3843 45 14.5344 45 17.7907C45 21.047 44.8049 25.1971 44.607 28.5699C44.4005 32.0903 41.8437 34.8492 38.6607 35.0238C34.0515 35.2765 27.4637 35.5814 22.5 35.5814C17.5363 35.5814 10.9485 35.2765 6.33932 35.0238C3.15635 34.8492 0.599523 32.0903 0.392956 28.5699C0.195049 25.1971 0 21.047 0 17.7907C0 14.5344 0.195049 10.3843 0.392956 7.01151Z" fill="#FC0D1B"/>
<path d="M8.60969 11.4501C8.7346 9.37929 10.2806 7.75639 12.2052 7.65371C14.9921 7.50502 18.9754 7.32568 21.9767 7.32568C24.9781 7.32568 28.9614 7.50502 31.7483 7.65371C33.6729 7.75639 35.2189 9.37929 35.3438 11.4501C35.4635 13.4341 35.5814 15.8753 35.5814 17.7908C35.5814 19.7063 35.4635 22.1475 35.3438 24.1315C35.2189 26.2023 33.6729 27.8252 31.7483 27.9279C28.9614 28.0766 24.9781 28.2559 21.9767 28.2559C18.9754 28.2559 14.9921 28.0766 12.2052 27.9279C10.2806 27.8252 8.7346 26.2023 8.60969 24.1315C8.49003 22.1475 8.37209 19.7063 8.37209 17.7908C8.37209 15.8753 8.49003 13.4341 8.60969 11.4501Z" fill="white"/>
<path d="M17.7907 10.4651V25.1163L30.3488 17.7907L17.7907 10.4651Z" fill="#FC0D1B"/>
</svg>
